# xmcd CD database file
#
# Track frame offsets:
#	150
#	19435
#	21933
#	39780
#	56290
#	72109
#	86528
#	105294
#	123406
#	140655
#	156156
#	166282
#	181648
#	198894
#	224880
#
# Disc length: 3204 seconds
#
# Revision: 2
# Processed by: cddbd v1.4b41PL1 Copyright (c) Steve Scherf et al.
# Submitted via: Feurio! 1.60 - http://www.feurio.com
#
DISCID=bf0c820f,c50c820f
DTITLE=Various Artist - Festmix - verzamelte CD
DYEAR=1900
DGENRE=
TTITLE0=??? - drei weiße Tauben
TTITLE1=??? - zehn kleine Japanesen
TTITLE2=??? - Die Karawane zieht weiter
TTITLE3=??? - ´n Nummerke mit Erika
TTITLE4=??? - immer freundlich lächeln
TTITLE5=??? - soeker Pupke
TTITLE6=??? - Meeje oet ee sjtuk
TTITLE7=??? - Lieske wee is schjerp op Lieske
TTITLE8=??? - Die Karawane zieht weiter (Hüttenhouse-mix)
TTITLE9=??? - Wo mir sin is Kölle
TTITLE10=??? - Festival
TTITLE11=??? - Limburgs Beer
TTITLE12=??? - Hup Holland Hup
TTITLE13=??? - Anton aus Tirol
TTITLE14=??? - Die Karawane zieht weiter (Oranje-boven-ethno-mix)
EXTD=
EXTT0=
EXTT1=
EXTT2=
EXTT3=
EXTT4=
EXTT5=
EXTT6=
EXTT7=
EXTT8=
EXTT9=
EXTT10=
EXTT11=
EXTT12=
EXTT13=
EXTT14=
PLAYORDER=
